<svg xmlns="http://www.w3.org/2000/svg" viewBox="0 0 405.8 432"><defs><style>.cls-1,.cls-10,.cls-2,.cls-3,.cls-4,.cls-5,.cls-6,.cls-7,.cls-8,.cls-9{fill:#620800;}.cls-2{opacity:0.9;}.cls-3{opacity:0.8;}.cls-4{opacity:0.7;}.cls-5{opacity:0.6;}.cls-6{opacity:0.5;}.cls-7{opacity:0.4;}.cls-8{opacity:0.3;}.cls-9{opacity:0.2;}.cls-10{opacity:0.1;}</style></defs><title>waiting_icon</title><g id="Layer_2" data-name="Layer 2"><g id="Layer_1-2" data-name="Layer 1"><rect class="cls-1" x="196" width="36" height="85.88" rx="11.62" ry="11.62"/><rect class="cls-1" x="136.81" y="10.44" width="36" height="85.88" rx="11.62" ry="11.62" transform="matrix(0.94, -0.34, 0.34, 0.94, -8.92, 56.17)"/><rect class="cls-1" x="84.76" y="40.49" width="36" height="85.88" rx="11.62" ry="11.62" transform="translate(-29.58 85.57) rotate(-40)"/><rect class="cls-2" x="46.13" y="86.53" width="36" height="85.88" rx="11.62" ry="11.62" transform="translate(-80.06 120.27) rotate(-60)"/><rect class="cls-3" x="25.57" y="143.01" width="36" height="85.88" rx="11.62" ry="11.62" transform="translate(-147.12 196.57) rotate(-80)"/><rect class="cls-4" x="25.57" y="203.11" width="36" height="85.88" rx="11.62" ry="11.62" transform="translate(-191.18 331.69) rotate(-100)"/><rect class="cls-5" x="46.13" y="259.59" width="36" height="85.88" rx="11.62" ry="11.62" transform="translate(-165.81 509.33) rotate(-120)"/><rect class="cls-6" x="84.76" y="305.64" width="36" height="85.88" rx="11.62" ry="11.62" transform="translate(-42.58 681.65) rotate(-140)"/><rect class="cls-7" x="136.81" y="335.69" width="36" height="85.88" rx="11.62" ry="11.62" transform="translate(170.79 787.37) rotate(-160)"/><rect class="cls-8" x="196" y="346.12" width="36" height="85.88" rx="11.62" ry="11.62" transform="translate(428.01 778.12) rotate(-180)"/><rect class="cls-9" x="255.19" y="335.69" width="36" height="85.88" rx="11.62" ry="11.62" transform="translate(659.41 640.98) rotate(160)"/><rect class="cls-10" x="307.25" y="305.64" width="36" height="85.88" rx="11.62" ry="11.62" transform="translate(798.46 406.53) rotate(140)"/><rect class="cls-1" x="345.88" y="86.53" width="36" height="85.88" rx="11.62" ry="11.62" transform="translate(294.06 -250.39) rotate(60)"/><rect class="cls-1" x="307.25" y="40.49" width="36" height="85.88" rx="11.62" ry="11.62" transform="translate(129.72 -189.55) rotate(40)"/><rect class="cls-1" x="255.19" y="10.44" width="36" height="85.88" rx="11.62" ry="11.62" transform="translate(34.73 -90.22) rotate(20)"/></g></g></svg>