<svg xmlns="http://www.w3.org/2000/svg" viewBox="0 0 428.32 432"><defs><style>.cls-1,.cls-10,.cls-11,.cls-12,.cls-13,.cls-14,.cls-15,.cls-16,.cls-17,.cls-18,.cls-2,.cls-3,.cls-4,.cls-5,.cls-6,.cls-7,.cls-8,.cls-9{fill:#620800;}.cls-2{opacity:0.95;}.cls-3{opacity:0.9;}.cls-4{opacity:0.85;}.cls-5{opacity:0.8;}.cls-6{opacity:0.75;}.cls-7{opacity:0.7;}.cls-8{opacity:0.65;}.cls-9{opacity:0.6;}.cls-10{opacity:0.55;}.cls-11{opacity:0.5;}.cls-12{opacity:0.45;}.cls-13{opacity:0.4;}.cls-14{opacity:0.35;}.cls-15{opacity:0.3;}.cls-16{opacity:0.25;}.cls-17{opacity:0.2;}.cls-18{opacity:0.15;}</style></defs><title>waiting_icon_1</title><g id="Layer_2" data-name="Layer 2"><g id="Layer_1-2" data-name="Layer 1"><rect class="cls-1" x="196.16" width="36" height="72" rx="10.64" ry="10.64"/><rect class="cls-2" x="134.6" y="10.86" width="36" height="72" rx="10.64" ry="10.64" transform="translate(-6.82 55.02) rotate(-20)"/><rect class="cls-3" x="80.46" y="42.11" width="36" height="72" rx="10.64" ry="10.64" transform="translate(-27.17 81.56) rotate(-40)"/><rect class="cls-4" x="40.27" y="90" width="36" height="72" rx="10.64" ry="10.64" transform="matrix(0.5, -0.87, 0.87, 0.5, -79.98, 113.47)"/><rect class="cls-5" x="18.89" y="148.74" width="36" height="72" rx="10.64" ry="10.64" transform="translate(-151.45 189) rotate(-80)"/><rect class="cls-6" x="18.89" y="211.26" width="36" height="72" rx="10.64" ry="10.64" transform="translate(-200.2 326.53) rotate(-100)"/><rect class="cls-7" x="40.27" y="270" width="36" height="72" rx="10.64" ry="10.64" transform="translate(-177.59 509.47) rotate(-120)"/><rect class="cls-8" x="80.46" y="317.89" width="36" height="72" rx="10.64" ry="10.64" transform="translate(-53.6 688.27) rotate(-140)"/><rect class="cls-9" x="134.6" y="349.14" width="36" height="72" rx="10.64" ry="10.64" transform="translate(164.26 799.25) rotate(-160)"/><rect class="cls-10" x="196.16" y="360" width="36" height="72" rx="10.64" ry="10.64" transform="translate(428.32 792) rotate(-180)"/><rect class="cls-11" x="257.72" y="349.14" width="36" height="72" rx="10.64" ry="10.64" transform="translate(666.54 652.76) rotate(160)"/><rect class="cls-12" x="311.86" y="317.89" width="36" height="72" rx="10.64" ry="10.64" transform="translate(810.02 412.95) rotate(140)"/><rect class="cls-13" x="352.04" y="270" width="36" height="72" rx="10.64" ry="10.64" transform="translate(820.07 138.53) rotate(120)"/><rect class="cls-14" x="373.42" y="211.26" width="36" height="72" rx="10.64" ry="10.64" transform="translate(702.89 -95.29) rotate(100)"/><rect class="cls-15" x="373.42" y="148.74" width="36" height="72" rx="10.64" ry="10.64" transform="translate(505.39 -232.81) rotate(80)"/><rect class="cls-16" x="352.04" y="90" width="36" height="72" rx="10.64" ry="10.64" transform="translate(294.14 -257.47) rotate(60)"/><rect class="cls-17" x="311.86" y="42.11" width="36" height="72" rx="10.64" ry="10.64" transform="translate(127.38 -193.76) rotate(40)"/><rect class="cls-18" x="257.72" y="10.86" width="36" height="72" rx="10.64" ry="10.64" transform="translate(32.65 -91.48) rotate(20)"/></g></g></svg>